<?xml version="1.0" standalone="no"?><!DOCTYPE svg PUBLIC "-//W3C//DTD SVG 1.1//EN" "http://www.w3.org/Graphics/SVG/1.1/DTD/svg11.dtd"><svg t="1535619027009" class="icon" style="" viewBox="0 0 1024 1024" version="1.1" xmlns="http://www.w3.org/2000/svg" p-id="1100" xmlns:xlink="http://www.w3.org/1999/xlink" width="200" height="200"><defs><style type="text/css"></style></defs><path d="M512.108 3.825C231.98 3.825 4.893 230.916 4.893 511.044c0 280.124 227.087 507.215 507.215 507.215s507.215-227.091 507.215-507.215C1019.323 230.916 792.236 3.825 512.108 3.825zM515.858 954.044c-244.526 0-442.754-198.784-442.754-444 0-245.22 198.228-444.008 442.754-444.008s442.754 198.788 442.754 444.008C958.612 755.26 760.383 954.044 515.858 954.044z" p-id="1101"></path><path d="M337.52 637.167c0.867 24.095 19.392 63.334 40.584 84.526 27.331 25.997 51.661 37.329 113.654 43.328l0 0 0 30.435c-0.005 0.196-0.015 0.39-0.015 0.587 0 12.979 10.522 23.501 23.501 23.501 12.954 0 23.458-10.481 23.499-23.425l0.01 0 0-30.431c49.994-4.666 67.832-10.9 93.322-28.33 35.536-24.299 54.66-75.335 54.66-115.321 0-39.645-11.665-73.659-44.994-97.656-22.665-16.665-42.328-28.664-102.988-42.663L538.753 303.737c30.663 4.666 42.995 9.665 59.659 25.664 17.096 15.196 25.2 30.548 31.267 60.142 0.151 1.655 0.47 3.261 0.947 4.798 0 0 0 0 0 0.001l0 0c2.969 9.578 11.897 16.535 22.451 16.535 12.979 0 23.501-10.522 23.501-23.501 0-2.196-0.308-4.319-0.871-6.335-5.616-36.232-21.608-64.094-36.299-77.636-20.932-19.295-46.661-37.663-100.655-43.662l0-33.33-0.018 0c0.002-0.124 0.009-0.246 0.009-0.37 0-12.979-10.522-23.501-23.501-23.501-12.979 0-23.501 10.522-23.501 23.501 0 0.198 0.01 0.393 0.015 0.589l0 32.444c-45.995 5.333-61.992 11.999-85.99 27.997-35.996 23.331-51.994 61.327-51.994 105.989 0 41.329 15.838 71.665 46.661 94.99 23.89 18.079 39.995 26.331 91.323 37.663l0 193.312c-37.329-2.666-54.327-9.998-72.992-29.33-14.146-14.67-23.256-31.26-26.678-56.025l-0.004 0c-1.03-14.162-12.837-25.335-27.262-25.335-15.018 0-27.202 12.108-27.337 27.093l-0.006 0c0 0.042 0.003 0.086 0.003 0.128 0 0.041-0.003 0.081-0.003 0.122C337.479 636.179 337.494 636.674 337.52 637.167zM538.754 532.379c45.995 11.332 54.993 14.998 68.325 24.331 20.664 15.332 33.33 37.663 33.33 66.993 0 31.997-15.665 58.661-37.663 74.659-18.665 13.999-29.329 18.331-63.992 22.331L538.754 532.379zM447.43 461.054c-31.996-15.331-47.328-37.995-47.328-69.992 0-25.998 11.998-50.662 31.33-65.327 16.665-12.665 27.663-17.998 60.326-21.998l0 171.982C467.094 470.387 460.762 467.054 447.43 461.054z" p-id="1102"></path></svg>