<?xml version="1.0" standalone="no"?><!DOCTYPE svg PUBLIC "-//W3C//DTD SVG 1.1//EN" "http://www.w3.org/Graphics/SVG/1.1/DTD/svg11.dtd"><svg t="1536896052393" class="icon" style="" viewBox="0 0 1024 1024" version="1.1" xmlns="http://www.w3.org/2000/svg" p-id="2543" xmlns:xlink="http://www.w3.org/1999/xlink" width="200" height="200"><defs><style type="text/css"></style></defs><path d="M908.8 838.4l-83.2-147.2V390.4c0-115.2-83.2-236.8-211.2-281.6C601.6 44.8 563.2 0 512 0c-57.6 0-96 44.8-102.4 102.4-128 44.8-211.2 166.4-211.2 281.6v300.8l-89.6 153.6c-6.4 12.8-6.4 25.6 0 32 6.4 19.2 19.2 25.6 32 25.6h211.2c12.8 76.8 83.2 128 160 128s147.2-57.6 160-128h211.2c19.2 0 32-12.8 32-32 0-12.8 0-19.2-6.4-25.6M512 64c12.8 0 19.2 6.4 25.6 25.6h-51.2c0-12.8 12.8-25.6 25.6-25.6m0 896c-44.8 0-76.8-25.6-89.6-64h179.2c-12.8 32-51.2 64-89.6 64m-313.6-134.4l64-115.2c0-6.4 6.4-12.8 6.4-19.2V390.4c0-108.8 102.4-236.8 243.2-236.8 140.8 0 243.2 128 243.2 236.8v307.2c0 6.4 0 12.8 6.4 19.2l64 115.2-627.2-6.4z" p-id="2544"></path></svg>