<?xml version="1.0" standalone="no"?><!DOCTYPE svg PUBLIC "-//W3C//DTD SVG 1.1//EN" "http://www.w3.org/Graphics/SVG/1.1/DTD/svg11.dtd"><svg t="1521083863723" class="icon" style="" viewBox="0 0 1024 1024" version="1.1" xmlns="http://www.w3.org/2000/svg" p-id="1095" xmlns:xlink="http://www.w3.org/1999/xlink" width="200" height="200"><defs><style type="text/css"></style></defs><path d="M85.333333 0l0 1024 853.333333 0L938.666667 0 85.333333 0zM874.666667 960 149.333333 960 149.333333 64l725.333333 0L874.666667 960z" p-id="1096"></path><path d="M234.666667 234.666667l448 0 0 64-448 0 0-64Z" p-id="1097"></path><path d="M234.666667 320l448 0 0 64-448 0 0-64Z" p-id="1098"></path><path d="M234.666667 405.333333l448 0 0 64-448 0 0-64Z" p-id="1099"></path><path d="M234.666667 490.666667l448 0 0 64-448 0 0-64Z" p-id="1100"></path><path d="M234.666667 576l448 0 0 64-448 0 0-64Z" p-id="1101"></path><path d="M234.666667 725.333333l576 0 0 64-576 0 0-64Z" p-id="1102"></path></svg>