<?xml version="1.0" standalone="no"?><!DOCTYPE svg PUBLIC "-//W3C//DTD SVG 1.1//EN" "http://www.w3.org/Graphics/SVG/1.1/DTD/svg11.dtd"><svg t="1522735820616" class="icon" style="" viewBox="0 0 1024 1024" version="1.1" xmlns="http://www.w3.org/2000/svg" p-id="2514" xmlns:xlink="http://www.w3.org/1999/xlink" width="200" height="200"><defs><style type="text/css"></style></defs><path d="M832 896 832 0 128 0l0 896L64 896l0 64 64 0 704 0 64 0 0-64L832 896zM384 896l0-128 192 0 0 128L384 896zM640 896l0-192L320 704l0 192L192 896 192 64l576 0 0 832L640 896zM257.344 128l64 0 0 64-64 0L257.344 128zM448 128l64 0 0 64L448 192 448 128zM640.64 128l64 0 0 64-64 0L640.64 128zM257.344 320l64 0 0 64-64 0L257.344 320zM448 320l64 0 0 64L448 384 448 320zM640.64 320l64 0 0 64-64 0L640.64 320zM257.344 512l64 0 0 64-64 0L257.344 512zM448 512l64 0 0 64L448 576 448 512zM640.64 512l64 0 0 64-64 0L640.64 512z" p-id="2515"></path></svg>