<?xml version="1.0" standalone="no"?><!DOCTYPE svg PUBLIC "-//W3C//DTD SVG 1.1//EN" "http://www.w3.org/Graphics/SVG/1.1/DTD/svg11.dtd"><svg t="1536895908368" class="icon" style="" viewBox="0 0 1354 1024" version="1.1" xmlns="http://www.w3.org/2000/svg" p-id="1870" xmlns:xlink="http://www.w3.org/1999/xlink" width="264.453125" height="200"><defs><style type="text/css"></style></defs><path d="M1180.03038 14.582278h-999.696203C90.734177 14.582278 17.822785 87.493671 17.822785 177.093671V847.392405c0 89.762025 72.911392 162.511392 162.511392 162.511392h702.055696c23.007595 0 41.478481-18.470886 41.478481-41.478481s-18.470886-41.478481-41.478481-41.478481H180.334177c-43.908861 0-79.55443-35.807595-79.55443-79.55443V177.093671c0-43.908861 35.807595-79.55443 79.55443-79.55443h999.534177c43.908861 0 79.55443 35.807595 79.554431 79.55443V847.392405c0 43.908861-35.807595 79.55443-79.554431 79.55443h-90.086076c-23.007595 0-41.478481 18.470886-41.478481 41.478481s18.470886 41.478481 41.478481 41.478481h90.248102c89.762025 0 162.511392-72.911392 162.511392-162.511392V177.093671C1342.541772 87.493671 1269.63038 14.582278 1180.03038 14.582278z m0 0" fill="" p-id="1871"></path><path d="M181.144304 263.453165h995.483544v82.956962H181.144304z" fill="" p-id="1872"></path><path d="M211.605063 568.222785h50.551899l25.437975 98.349367c6.318987 23.16962 10.531646 44.394937 16.850633 67.726582h1.296202c6.481013-23.331646 10.855696-44.556962 16.850633-67.726582l24.951899-98.349367h48.76962L332.8 779.341772H275.443038l-63.837975-211.118987zM418.997468 568.222785h47.797469V779.341772h-47.797469V568.222785zM516.698734 568.222785h72.587342c46.501266 0 83.929114 16.688608 83.929114 67.888607 0 49.579747-37.913924 71.61519-82.632912 71.61519h-26.086075V779.341772h-47.797469V568.222785z m70.967089 101.589873c26.248101 0 38.724051-11.665823 38.72405-33.701266 0-22.035443-14.096203-29.974684-40.020253-29.974683h-22.035443v63.675949h23.331646z" fill="" p-id="1873"></path></svg>