<?xml version="1.0" standalone="no"?><!DOCTYPE svg PUBLIC "-//W3C//DTD SVG 1.1//EN" "http://www.w3.org/Graphics/SVG/1.1/DTD/svg11.dtd"><svg t="1536304991687" class="icon" style="" viewBox="0 0 1024 1024" version="1.1" xmlns="http://www.w3.org/2000/svg" p-id="1939" xmlns:xlink="http://www.w3.org/1999/xlink" width="200" height="200"><defs><style type="text/css"></style></defs><path d="M981.333333 535.04V490.666667a128 128 0 0 0-128-128H170.666667a128 128 0 0 0-128 128v44.373333a128 128 0 0 1 0 252.586667V853.333333a128 128 0 0 0 128 128h682.666666a128 128 0 0 0 128-128v-65.706666a128 128 0 0 1 0-252.373334zM832 661.333333a170.666667 170.666667 0 0 0 106.666667 158.293334V853.333333a85.333333 85.333333 0 0 1-85.333334 85.333334H277.333333v-64h-42.666666v64H170.666667a85.333333 85.333333 0 0 1-85.333334-85.333334v-33.706666a170.666667 170.666667 0 0 0 0-316.586667V490.666667a85.333333 85.333333 0 0 1 85.333334-85.333334h64v64h42.666666v-64h576a85.333333 85.333333 0 0 1 85.333334 85.333334v12.373333A170.666667 170.666667 0 0 0 832 661.333333zM870.826667 256l-21.333334-21.333333A104.746667 104.746667 0 0 1 704 88.746667l-9.173333-9.173334a128 128 0 0 0-181.12 0L272.426667 320h632.96a128 128 0 0 0-34.56-64zM375.466667 277.333333l167.68-167.68a85.333333 85.333333 0 0 1 106.666666-11.093333 147.84 147.84 0 0 0 64 178.773333z" p-id="1940"></path><path d="M664.96 469.333333l-81.066667 161.493334-81.066666-161.493334H426.666667l103.04 186.666667h-68.053334v35.413333h87.893334l0.426666 0.64v44.373334h-88.32v35.413333h88.32v80.64h67.626667v-80.64h89.173333v-35.413333h-89.173333v-44.373334l0.64-0.64h88.533333v-35.413333h-68.693333L741.12 469.333333h-76.16z" p-id="1941"></path><path d="M234.666667 533.333333h42.666666v106.666667h-42.666666zM234.666667 704h42.666666v106.666667h-42.666666z" p-id="1942"></path></svg>